<?xml version="1.0" encoding="UTF-8"?>
<svg width="256px" height="256px" viewBox="0 0 256 256" version="1.1" xmlns="http://www.w3.org/2000/svg" xmlns:xlink="http://www.w3.org/1999/xlink">
    <!-- Generator: Sketch 58 (84663) - https://sketch.com -->
    <title>CreditMutuelArkeaLarge</title>
    <desc>Created with Sketch.</desc>
    <g id="CreditMutuelArkeaLarge" stroke="none" stroke-width="1" fill="none" fill-rule="evenodd">
        <rect fill="#ED1C24" x="0" y="0" width="256" height="256"></rect>
        <path d="M87.7006663,109.038685 C93.6053306,109.136022 98.1322399,112.542807 99.5099949,117.896325 C100.789339,123.055171 98.7227063,128.116679 94.097386,130.842107 C93.8021527,131.134117 93.6053306,131.231454 93.3100974,131.426127 C95.475141,133.567535 97.3449513,135.806279 99.5099949,137.655676 C102.265505,140.089094 105.709892,140.965124 109.351102,141.062461 L110.827268,141.062461 L110.827268,147 C107.973347,147 105.217837,146.902663 102.560738,146.221306 C98.7227063,145.247939 95.6719631,143.203869 92.9164531,140.381104 C90.6529985,138.045023 88.3895438,135.708942 86.1260892,133.372861 C85.5356228,132.788841 84.9451563,132.496831 84.1578678,132.594168 C83.173757,132.691504 82.2880574,132.691504 81.3039467,132.594168 C80.4182471,132.496831 80.2214249,132.886178 80.2214249,133.664871 L80.2214249,146.41598 L74.4151717,146.41598 C74.2183496,146.41598 73.9231164,146.026633 73.9231164,145.83196 C73.8247053,145.539949 73.9231164,145.247939 73.9231164,144.858592 L73.9236328,110.295566 C73.9303472,109.085236 74.0243479,109.040409 75.3403584,109.038749 L87.7006663,109.038685 Z M150.880574,109.136022 C143.893388,115.268234 137.103024,121.108437 129.919016,127.435322 C130.509482,127.824669 131.099949,128.019343 131.493593,128.506026 C133.95387,130.939444 136.315736,133.275525 138.677601,135.806279 C142.023578,139.407737 146.255254,141.159798 151.175807,141.257134 C151.274218,141.062461 151.569452,141.159798 151.963096,141.159798 L151.963096,146.318643 C151.963096,146.513316 151.47104,146.902663 151.274218,146.902663 C146.058432,147 140.842645,146.41598 136.906202,142.814522 C131.493593,137.947686 126.474628,132.594168 121.258842,127.337986 C121.750897,126.851302 122.144541,126.559292 122.439774,126.267282 C128.836494,120.71909 135.134803,115.170898 141.531522,109.720042 C141.925167,109.330695 142.515633,109.136022 143.106099,109.136022 C145.566376,109.038685 148.026653,109.136022 150.880574,109.136022 Z M209.533573,112.15346 C213.174782,117.312305 215.930292,122.957834 218.095336,128.895373 C220.161968,134.443565 221.933368,139.991757 223.803178,145.539949 C223.901589,145.83196 223.901589,146.026633 224,146.513316 L217.308047,146.513316 C217.111225,146.513316 216.717581,145.929296 216.61917,145.637286 C215.73347,142.814522 214.946181,139.991757 214.158893,137.168993 C213.962071,136.292962 213.568426,136.000952 212.682727,136.000952 L196.838544,136.000952 C196.051256,136.000952 195.5592,136.195626 195.362378,137.071656 C194.57509,139.894421 193.68939,142.717185 192.902101,145.539949 C192.705279,146.41598 192.311635,146.610653 191.425935,146.610653 C189.359303,146.41598 187.391081,146.513316 185.127627,146.513316 C186.406971,142.619848 187.489493,138.921054 188.768836,135.319595 C191.229113,128.214016 193.984623,121.108437 198.019477,114.684214 C199.101999,113.02949 200.381343,111.472103 201.660687,109.914716 C202.054331,109.525369 202.743209,109.428032 203.333675,109.136022 L203.530497,109.136022 C206.384418,108.552002 208.057406,110.012052 209.533573,112.15346 Z M56.1107125,111.958786 C59.7519221,117.117632 62.5074321,122.763161 64.6724757,128.7007 C66.7391081,134.248892 68.5105074,139.894421 70.3803178,145.442613 C70.2819067,145.734623 70.3803178,146.026633 70.4787289,146.41598 L63.8851871,146.41598 C63.5899539,146.41598 63.1963096,145.929296 63.0978985,145.539949 C62.2121989,142.619848 61.3264992,139.699747 60.5392107,136.779646 C60.3423885,136.000952 59.9487442,135.806279 59.2598667,135.806279 L43.1204511,135.806279 C42.4315736,135.806279 42.0379293,136.000952 41.8411071,136.682309 C41.0538186,139.60241 40.1681189,142.522512 39.3808303,145.442613 C39.1840082,146.221306 38.7903639,146.41598 38.1014864,146.41598 L32,146.41598 L32,145.83196 C34.9523321,136.000952 38.1014864,126.169945 43.1204511,117.214968 C44.5966171,114.684214 46.4664275,112.348133 48.2378268,109.914716 C48.53306,109.525369 49.3203485,109.428032 49.910815,109.136022 L50.3044593,109.136022 C52.9615582,108.552002 54.6345464,109.914716 56.1107125,111.958786 Z M181.978473,109.233359 L181.978473,114.586877 C181.978473,114.781551 181.289595,115.073561 180.895951,115.073561 L162.49308,115.073561 L162.49308,124.125874 L177.746797,124.125874 L177.746797,129.966077 L162.591492,129.966077 L162.591492,140.478441 L180.699129,140.478441 C181.78165,140.478441 182.175295,140.673114 182.076884,141.841155 C181.978473,143.301205 182.076884,144.761256 182.076884,146.318643 L156.096361,146.318643 L156.096361,109.233359 L181.978473,109.233359 Z M120.668375,109.136022 L120.668375,146.318643 L120.668375,146.318643 L114.370067,146.318643 L114.370067,146.318643 L114.370067,109.136022 L114.370067,109.136022 L120.668375,109.136022 L120.668375,109.136022 Z M51.1901589,116.241601 C48.0410046,120.71909 45.875961,125.293915 44.1045618,130.258087 L58.177345,130.258087 C56.4059457,125.293915 54.2409021,120.621753 51.1901589,116.241601 Z M204.613019,116.241601 C201.562276,120.71909 199.298821,125.293915 197.625833,130.258087 L211.698616,130.258087 C209.828806,125.293915 207.663762,120.71909 204.613019,116.241601 Z M80.2214249,115.268234 L80.2214249,126.169945 C80.2214249,126.364619 80.7134803,126.656629 80.9103024,126.656629 C83.2721681,126.656629 85.6340338,126.753965 87.9958995,126.559292 C91.0466427,126.267282 93.1132752,124.028538 93.3100974,121.205773 C93.4085085,118.090999 91.6371092,115.560244 88.4879549,115.170898 C85.830856,114.976224 83.075346,115.268234 80.2214249,115.268234 Z" id="Combined-Shape" fill="#FFFFFF" fill-rule="nonzero"></path>
    </g>
</svg>