<?xml version="1.0" encoding="UTF-8"?>
<svg width="171px" height="110px" viewBox="0 0 171 110" version="1.1" xmlns="http://www.w3.org/2000/svg" xmlns:xlink="http://www.w3.org/1999/xlink">
    <!-- Generator: Sketch 53.2 (72643) - https://sketchapp.com -->
    <title>Group 18 Copy</title>
    <desc>Created with Sketch.</desc>
    <defs>
        <polygon id="path-1" points="0.672842907 0.1075 50.8625818 0.1075 50.8625818 103.37 0.672842907 103.37"></polygon>
        <polygon id="path-3" points="0 0.17625 63.22275 0.17625 63.22275 24.59875 0 24.59875"></polygon>
    </defs>
    <g id="Page-1" stroke="none" stroke-width="1" fill="none" fill-rule="evenodd">
        <g id="homepage" transform="translate(-29.000000, -29.000000)">
            <g id="Group-18-Copy" transform="translate(29.000000, 29.000000)">
                <path d="M75.6662724,92.0012799 L68,101.010239 L75.7129564,110 L76.2390979,110 L84,100.966724 L76.1911521,92 L75.6662724,92.0012799 Z M71.7019163,101 L75.9388061,95.8779863 L80.2274269,100.976962 L75.9665642,106.123294 L71.7019163,101 Z" id="Fill-1" fill="#FFFFFF"></path>
                <polygon id="Fill-2" fill="#FFFFFF" points="90 93.007608 90.0440217 110 99 109.97464 98.9951087 107.191393 92.8369565 107.207876 92.8002717 93"></polygon>
                <polygon id="Fill-3" fill="#FFFFFF" points="109.016556 99.5284488 105.711497 92.018389 103 93.3019399 107.62095 102.64109 107.63812 109 110.4465 108.990193 110.429331 102.679094 115 93.2700656 112.303219 92"></polygon>
                <polygon id="Fill-4" fill="#FFFFFF" points="131.57539 93.0024439 128.491082 102.447024 125.33161 93.0195515 124.438549 93.0207734 120 109.406124 123.088129 110 125.230965 100.836472 128.029901 109.780046 128.945893 109.777602 131.766487 100.819365 133.914418 109.973117 137 109.363355 132.467176 93"></polygon>
                <path d="M143,92.002474 L143.023552,109 L145.862182,108.992578 L145.851025,105.17769 L154,99.4887579 L143.775975,92 L143,92.002474 Z M145.827474,96.7240777 L149.402412,99.4306192 L145.842348,102.015935 L145.827474,96.7240777 Z" id="Fill-5" fill="#FFFFFF"></path>
                <path d="M160,92.002474 L160.023552,109 L162.862182,108.992578 L162.849786,105.17769 L171,99.4887579 L160.774735,92 L160,92.002474 Z M162.827474,96.7240777 L166.402412,99.4306192 L162.842348,102.014698 L162.827474,96.7240777 Z" id="Fill-6" fill="#FFFFFF"></path>
                <g id="Group-17">
                    <path d="M75.925875,101.768375 C75.535875,101.907125 75.108375,101.704625 74.968375,101.315875 C74.829625,100.925875 75.032125,100.497125 75.422125,100.358375 C75.810875,100.218375 76.239625,100.422125 76.378375,100.810875 C76.518375,101.200875 76.315875,101.629625 75.925875,101.768375" id="Fill-7" fill="#FFFFFF"></path>
                    <g id="Group-11" transform="translate(48.750000, 0.000000)">
                        <mask id="mask-2" fill="white">
                            <use xlink:href="#path-1"></use>
                        </mask>
                        <g id="Clip-10"></g>
                        <path d="M47.423625,46.62375 C47.232375,46.62375 47.053625,46.65125 46.898625,46.7175 C46.903625,46.34875 47.077375,45.5925 47.198625,45.06125 C47.328625,44.495 47.459875,43.91875 47.537375,43.38125 C48.464875,44.73875 49.399875,46.4675 49.776125,47.4275 C49.222375,47.1025 48.212375,46.62375 47.423625,46.62375 L47.423625,46.62375 Z M42.344875,38.56625 C42.366125,37.5825 42.311125,36.5775 42.169875,35.5625 C42.777375,36.00125 43.327375,36.51125 43.804875,36.9875 C44.814875,37.99125 45.604875,39.17875 46.137375,40.48 C45.057375,39.62 43.822375,39.00125 42.344875,38.56625 L42.344875,38.56625 Z M39.096125,46.3225 C38.802375,44.995 38.413625,43.70125 37.942375,42.46 C39.426125,40.72 40.573625,38.74875 41.368625,36.58125 C41.694875,40.22 40.897375,43.655 39.096125,46.3225 L39.096125,46.3225 Z M19.796125,34.055 C19.694875,34.055 19.584875,34.05375 19.473625,34.05125 C18.986125,33.40375 18.466125,32.7825 17.917375,32.19625 C18.528625,31.11875 18.889875,29.9775 18.963625,28.83375 C20.626125,28.7175 22.162375,27.94625 23.206125,26.75625 L24.341125,27.86875 C24.429875,27.955 24.544875,27.99875 24.659875,27.99875 C24.776125,27.99875 24.893625,27.95375 24.981125,27.86625 L25.374875,27.475 C25.748625,28.9925 27.059875,30.1425 28.657375,30.2725 C26.599875,32.625 23.303625,34.055 19.796125,34.055 L19.796125,34.055 Z M17.683625,38.01375 C14.161125,38.01375 9.572375,39.3 7.029875,40.975 C7.003625,40.96 6.979875,40.945 6.953625,40.92875 C6.263625,40.4025 5.692375,39.7575 5.262375,39.035 C5.116125,38.72875 5.004875,38.405 4.931125,38.07125 C5.737375,38.185 6.541125,38.20625 7.007375,38.20625 C9.877375,38.20625 12.858625,37.1525 15.183625,35.3175 C16.072375,34.61625 16.821125,33.83125 17.411125,32.99375 C18.668625,34.37625 19.981125,36.2175 21.028625,38.32625 C19.939875,38.11875 18.818625,38.01375 17.683625,38.01375 L17.683625,38.01375 Z M4.343625,35.71125 C4.343625,33.6025 4.744875,32.30875 5.776125,31.31375 C5.823625,32.08375 6.006125,32.94625 6.212375,33.26875 C6.479875,33.6875 6.362375,33.9025 5.479875,34.625 C5.096125,34.94 4.658625,35.2975 4.343625,35.7525 L4.343625,35.71125 Z M13.467375,23.02375 C13.467375,20.615 15.397375,18.525 17.899875,18.1775 L21.186125,21.3875 L21.186125,22.875 C21.186125,22.9925 21.231125,23.105 21.312375,23.19 L23.194875,25.16 C22.359875,26.8325 20.522375,27.9375 18.526125,27.9375 C15.736125,27.9375 13.467375,25.73375 13.467375,23.02375 L13.467375,23.02375 Z M43.129875,9.82875 C43.136125,10.33 43.244875,10.79375 43.404875,11.18125 C42.351125,11.4875 41.391125,11.93625 40.526125,12.4325 L43.129875,9.82875 Z M34.231125,21.01125 C33.258625,24.2275 32.156125,27.87125 30.154875,29.11125 C29.864875,29.29 29.474875,29.3775 28.959875,29.3775 C27.486125,29.3775 26.276125,28.22625 26.182375,26.7775 L35.338625,17.62 C34.948625,18.63875 34.593625,19.80875 34.231125,21.01125 L34.231125,21.01125 Z M25.254875,46.9775 C28.899875,50.295 33.623625,52.12125 38.556125,52.12125 C41.378625,52.12125 44.078625,51.535 46.609875,50.38125 C43.811125,53.66625 39.819875,55.65 35.637375,55.765 C31.632375,55.87875 27.813625,54.4175 24.899875,51.66 C24.426125,51.21 23.976125,50.725 23.564875,50.21875 C23.859875,48.98125 24.016125,47.72 24.016125,46.44625 C24.016125,46.2075 24.009875,45.965 23.997375,45.72125 C24.398625,46.1575 24.817375,46.57875 25.254875,46.9775 L25.254875,46.9775 Z M47.233625,56.48375 C47.089875,55.0375 46.668625,53.7375 45.927375,52.40625 C46.646125,51.74125 47.312375,51.00625 47.916125,50.20875 C48.034875,50.9525 48.057375,51.7075 48.057375,52.385 C48.057375,53.8025 47.774875,55.19375 47.233625,56.48375 L47.233625,56.48375 Z M19.228625,67.0325 C15.737375,64.89125 13.662375,63.945 11.626125,63.7275 C13.958625,62.6925 16.126125,61.27875 17.983625,59.53375 C20.541125,57.13125 22.337375,54.29875 23.272375,51.2825 C23.591125,51.6425 23.924875,51.99125 24.273625,52.3225 C27.254875,55.14375 31.123625,56.6825 35.211125,56.6825 C35.362375,56.6825 35.512375,56.68 35.662375,56.67625 C36.446125,56.655 37.223625,56.57125 37.988625,56.43 C35.441125,59.31375 29.653625,64.465 19.228625,67.0325 L19.228625,67.0325 Z M30.344875,71.245 C28.076125,73.72375 22.134875,76.81125 15.271125,77.00125 L14.939875,77.01 C11.606125,77.1025 8.844875,77.18 6.491125,75.82 C4.787375,74.7275 3.744875,72.84125 3.744875,70.79875 C3.744875,68.13 5.398625,65.8225 7.862375,65.05625 L7.853625,65.02875 C8.229875,64.9325 8.603625,64.8275 8.974875,64.71375 L8.976125,64.7225 C12.241125,64.2475 14.168625,64.915 19.839875,68.485 C24.041125,71.13 28.417375,71.3175 30.344875,71.245 L30.344875,71.245 Z M30.423625,78.11125 C30.247375,76.6375 29.738625,75.08 28.969875,73.66 C29.789875,73.09125 30.508625,72.47 31.086125,71.79875 C31.204875,72.44625 31.262375,73.1575 31.262375,73.9775 C31.262375,75.40875 30.976125,76.8125 30.423625,78.11125 L30.423625,78.11125 Z M13.676125,87.2225 C13.127375,87.6125 12.427375,87.855 11.681125,88.0975 C11.076125,84.615 9.428625,82.0525 7.663625,79.30625 C7.093625,78.41875 6.513625,77.515 5.948625,76.55375 C5.951125,76.55625 5.954875,76.5575 5.958625,76.56 C6.111125,76.65875 6.267375,76.75375 6.428625,76.8425 L6.439875,76.82375 C8.301125,77.76875 10.366125,77.965 12.622375,77.965 C13.382375,77.965 14.163625,77.94375 14.964875,77.92125 L15.297375,77.9125 C15.833625,77.8975 16.409875,77.85375 17.014875,77.7875 C17.257375,80.02375 17.528625,84.4825 13.676125,87.2225 L13.676125,87.2225 Z M10.053625,97.5825 C8.649875,94.49 8.206125,92.33625 8.699875,91.0525 C9.061125,90.11 9.931125,89.66125 10.943625,89.30125 C11.179875,91.55625 10.957375,94.21375 10.053625,97.5825 L10.053625,97.5825 Z M11.548625,102.44375 L9.428625,102.455 C9.737375,101.63125 10.012375,100.8425 10.258625,100.08375 C10.644875,100.82625 11.074875,101.6125 11.548625,102.44375 L11.548625,102.44375 Z M2.241125,65.715 C2.296125,65.71625 2.352375,65.71625 2.408625,65.71625 C3.334875,65.71625 4.262375,65.65 5.184875,65.53125 C4.946125,65.74 4.722375,65.965 4.516125,66.205 C3.529875,66.2075 2.781125,66.05 2.241125,65.715 L2.241125,65.715 Z M44.867375,63.98125 C44.667375,63.21 44.139875,61.7675 43.339875,61.44125 C43.604875,61.185 44.263625,60.77375 44.726125,60.485 C45.218625,60.1775 45.721125,59.865 46.156125,59.54 C45.847375,61.155 45.282375,63.0375 44.867375,63.98125 L44.867375,63.98125 Z M28.073625,85.57375 C27.873625,84.80125 27.346125,83.36 26.546125,83.03375 C26.811125,82.7775 27.469875,82.36625 27.931125,82.07875 C28.424875,81.77 28.926125,81.4575 29.362375,81.1325 C29.054875,82.7475 28.488625,84.63 28.073625,85.57375 L28.073625,85.57375 Z M43.381125,2.06625 L42.033625,4.115 L41.219875,3.53375 C41.742375,3.14 42.581125,2.58125 43.381125,2.06625 L43.381125,2.06625 Z M49.649875,45.085 C49.081125,44.05 48.277375,42.755 47.526125,41.83625 C47.034875,39.755 45.972375,37.85625 44.448625,36.34 C43.703625,35.6 42.798625,34.7675 41.726125,34.2075 C41.603625,34.1425 41.458625,34.13875 41.331125,34.195 C41.203625,34.25125 41.109875,34.36125 41.074875,34.495 C40.386125,37.11 39.199875,39.45875 37.553625,41.495 C35.998625,37.82875 33.704875,34.69125 30.947375,32.62 C30.298625,32.1325 29.617375,31.70125 28.919875,31.32875 C29.272375,30.97 29.597375,30.59 29.893625,30.18875 C30.169875,30.12125 30.416125,30.02125 30.633625,29.88625 C32.928625,28.465 34.084875,24.645 35.103625,21.275 C35.818625,18.91375 36.492375,16.6825 37.414875,15.66625 C37.699875,15.475 38.009875,15.24625 38.366125,14.98375 C39.739875,13.97375 41.597375,12.61 43.853625,12.00625 C47.568625,16.46375 49.616125,22.09375 49.616125,27.91375 C49.616125,30.2525 49.291125,32.5675 48.651125,34.795 L49.528625,35.04625 C50.191125,32.7375 50.527375,30.3375 50.527375,27.91375 C50.527375,21.86125 48.391125,16.00375 44.514875,11.37625 C44.502375,11.32375 44.483625,11.2725 44.453625,11.22625 C44.051125,10.6225 43.849875,9.58 44.306125,8.615 C44.401125,8.415 44.337375,8.175 44.157375,8.0475 C43.974875,7.92 43.728625,7.94125 43.572375,8.0975 L42.469875,9.19875 C41.502375,8.2825 40.474875,7.4475 39.397375,6.70125 L41.349875,4.74625 L41.889875,5.1325 C41.968625,5.1875 42.059875,5.2175 42.154875,5.2175 C42.183625,5.2175 42.209875,5.215 42.238625,5.21 C42.359875,5.18625 42.467375,5.115 42.536125,5.01125 L45.294875,0.81375 C45.412375,0.635 45.389875,0.39875 45.241125,0.245 C45.093625,0.0925 44.857375,0.0625 44.676125,0.17375 C44.289875,0.41 40.888625,2.5025 40.153625,3.23875 C40.057375,3.33375 40.009875,3.46625 40.021125,3.6 C40.032375,3.7325 40.102375,3.855 40.209875,3.9325 L40.597375,4.20875 L38.622375,6.18625 C34.517375,3.5575 29.741125,2.14625 24.761125,2.14625 C22.602375,2.14625 20.457375,2.41375 18.384875,2.94125 L18.609875,3.825 C20.608625,3.31625 22.678625,3.0575 24.761125,3.0575 C29.494875,3.0575 34.041125,4.38125 37.963625,6.8475 L23.834875,20.98875 L24.479875,21.63375 L38.741125,7.3575 C39.824875,8.0975 40.856125,8.9275 41.824875,9.84375 L40.197375,11.47125 L24.657375,26.9025 L23.756125,26.02 C23.909875,25.77375 24.044875,25.515 24.158625,25.24375 C24.228625,25.0775 24.193625,24.88375 24.067375,24.7525 L22.097375,22.6925 L22.097375,21.19625 C22.097375,21.07375 22.047375,20.955 21.961125,20.86875 L18.382375,17.37375 C18.283625,17.27875 18.152375,17.2325 18.018625,17.24625 C14.954875,17.54875 12.554875,20.08625 12.554875,23.02375 C12.554875,23.57375 12.636125,24.10625 12.782375,24.61125 L11.829875,25.56125 C11.698625,25.43875 11.584875,25.32125 11.541125,25.25625 C11.063625,24.54125 10.822375,23.57875 10.822375,22.395 C10.822375,19.54 13.031125,16.84 15.851125,16.2525 C16.096125,16.20125 16.252375,15.965 16.206125,15.72 L15.461125,11.815 C15.437375,11.695 15.367375,11.58875 15.264875,11.52125 C15.163625,11.45375 15.038625,11.42875 14.918625,11.455 C9.514875,12.59625 5.591125,17.39875 5.591125,22.875 C5.591125,25.35125 6.353625,27.71875 7.796125,29.7225 L8.536125,29.18875 C7.204875,27.3425 6.503625,25.15875 6.503625,22.875 C6.503625,17.98125 9.903625,13.67 14.653625,12.4525 L15.229875,15.46625 C12.213625,16.31375 9.909875,19.2725 9.909875,22.395 C9.909875,23.76125 10.203625,24.895 10.783625,25.7625 C10.974875,26.04875 11.463625,26.45875 11.561125,26.5375 C11.742375,26.68625 12.006125,26.67375 12.172375,26.5075 L13.142375,25.54 C14.041125,27.36375 15.886125,28.66125 18.051125,28.82875 C17.723625,33.23875 12.511125,37.29375 7.007375,37.29375 C6.521125,37.29375 5.646125,37.27125 4.824875,37.13375 C4.824875,37.11875 4.823625,37.105 4.823625,37.09 C4.823625,36.34 5.422375,35.85 6.057375,35.33 C6.766125,34.75125 7.734875,33.95875 6.981125,32.7775 C6.718625,32.3675 6.643625,30.96125 6.684875,30.54625 C6.718625,30.48875 6.737375,30.425 6.742375,30.3575 C6.753625,30.21875 6.701125,30.08375 6.599875,29.98875 C6.432375,29.83125 6.158625,29.8225 5.982375,29.97 C5.969875,29.97875 5.959875,29.99 5.948625,30.00125 C3.739875,31.54125 3.432375,33.655 3.432375,35.71125 C3.432375,37.0475 3.796125,38.33875 4.457375,39.465 C4.892375,40.36 5.571125,41.13125 6.434875,41.67875 C6.541125,41.76 6.651125,41.83875 6.763625,41.91375 C6.839875,41.96625 6.928625,41.99125 7.018625,41.99125 C7.111125,41.99125 7.203625,41.96375 7.283625,41.9075 C9.623625,40.235 14.192375,38.925 17.683625,38.925 C18.989875,38.925 20.276125,39.0725 21.512375,39.36125 C22.467375,41.55125 23.104875,43.97625 23.104875,46.44625 C23.104875,50.97625 21.064875,55.38875 17.359875,58.87 C13.041125,62.92625 6.983625,65.1275 1.157375,64.76625 C0.989875,64.7575 0.827375,64.83875 0.738625,64.98375 C0.651125,65.12875 0.651125,65.31 0.737375,65.455 C1.328625,66.44 2.356125,66.98 3.864875,67.095 C3.204875,68.17125 2.832375,69.445 2.832375,70.79875 C2.832375,71.94625 3.121125,73.05125 3.641125,74.0275 L3.594875,74.04875 C4.616125,76.25125 5.776125,78.055 6.897375,79.8 C8.671125,82.55875 10.261125,85.03125 10.819875,88.37875 C9.561125,88.80875 8.369875,89.36625 7.848625,90.725 C7.199875,92.4125 7.763625,95.01125 9.671125,98.92 C9.309875,100.11 8.868625,101.3825 8.339875,102.74875 C8.284875,102.89 8.303625,103.04875 8.389875,103.1725 C8.474875,103.29625 8.614875,103.37 8.764875,103.37 L8.767375,103.37 L12.337375,103.35125 C12.499875,103.35 12.649875,103.26375 12.729875,103.1225 C12.811125,102.98 12.811125,102.8075 12.728625,102.66625 C11.917375,101.27 11.222375,99.99 10.646125,98.8275 C11.837375,94.7625 12.113625,91.62625 11.812375,89.0125 C12.648625,88.74375 13.506125,88.46125 14.204875,87.965 C18.494875,84.9125 18.181125,80.0675 17.918625,77.67125 C21.252375,77.18375 25.228625,75.98 28.204875,74.1575 C29.083625,75.805 29.583625,77.6375 29.583625,79.255 C29.583625,79.39875 29.576125,79.55375 29.563625,79.72 C29.166125,80.23375 28.219875,80.82375 27.448625,81.305 C26.257375,82.04875 25.471125,82.54 25.539875,83.185 C25.563625,83.4 25.696125,83.69625 26.199875,83.87625 C26.568625,84.01 27.192375,85.49125 27.252375,86.0875 C27.328625,86.835 27.647375,87.00125 27.916125,87.00125 C27.926125,87.00125 27.937375,87.00125 27.948625,87 C28.222375,86.9875 28.728625,86.96125 29.644875,83.8325 C29.977375,82.69875 30.327375,81.21625 30.449875,80.035 C31.577375,78.21875 32.174875,76.12625 32.174875,73.9775 C32.174875,72.645 32.032375,71.56625 31.724875,70.5825 C31.659875,70.37 31.449875,70.235 31.229875,70.26625 C31.173625,70.2725 25.518625,70.98375 20.324875,67.71375 C20.316125,67.70875 20.309875,67.70375 20.301125,67.69875 C31.663625,64.6775 37.449875,58.63875 39.473625,56.07625 C41.558625,55.4725 43.517375,54.43 45.222375,53.02125 C46.014875,54.5025 46.377375,55.9525 46.377375,57.66375 C46.377375,57.80625 46.369875,57.96125 46.357375,58.1275 C45.959875,58.64 45.012375,59.23125 44.242375,59.7125 C43.052375,60.45625 42.264875,60.9475 42.334875,61.5925 C42.356125,61.8075 42.489875,62.10375 42.992375,62.28375 C43.363625,62.41625 43.986125,63.89875 44.047375,64.495 C44.122375,65.24375 44.441125,65.40875 44.709875,65.40875 C44.721125,65.40875 44.732375,65.40875 44.742375,65.4075 C45.014875,65.395 45.522375,65.36875 46.439875,62.24 C46.772375,61.10625 47.122375,59.6225 47.243625,58.44375 C48.372375,56.62625 48.968625,54.53375 48.968625,52.385 C48.968625,51.335 48.919875,50.10625 48.561125,48.95 C48.519875,48.8175 48.419875,48.71125 48.291125,48.66125 C48.162375,48.61 48.017375,48.6225 47.897375,48.69125 C45.017375,50.3625 41.876125,51.20875 38.556125,51.20875 C33.851125,51.20875 29.344875,49.46625 25.868625,46.3025 C25.141125,45.64125 24.459875,44.9175 23.844875,44.15 L23.842375,44.1525 C23.387375,41.06375 22.059875,37.80125 20.121125,34.9575 C23.182375,34.885 26.081125,33.8 28.213625,31.9875 C28.966125,32.36875 29.702375,32.825 30.399875,33.34875 C34.818625,36.66875 37.999875,42.8775 38.702375,49.55375 L39.608625,49.45875 C39.541125,48.81375 39.451125,48.175 39.338625,47.54 C41.061125,45.3275 42.069875,42.5375 42.297375,39.505 C43.938625,40.0175 45.243625,40.7875 46.362375,41.9 C46.463625,42.00125 46.568625,42.11625 46.677375,42.24125 C46.761125,42.88625 46.512375,43.97375 46.309875,44.85875 C45.996125,46.2275 45.789875,47.13125 46.296125,47.5375 C46.464875,47.67375 46.768625,47.7875 47.251125,47.55875 C47.607375,47.39125 49.096125,47.9925 49.562375,48.37125 C49.868625,48.62 50.107375,48.7075 50.294875,48.7075 C50.477375,48.7075 50.608625,48.6225 50.699875,48.52125 C50.882375,48.3175 51.222375,47.94125 49.649875,45.085 L49.649875,45.085 Z" id="Fill-9" fill="#FFFFFF" mask="url(#mask-2)"></path>
                    </g>
                    <polygon id="Fill-12" fill="#FFFFFF" points="63.8385 29.50025 62.76225 30.579 60.56225 30.424 60.4985 31.334 62.43225 31.469 62.551 31.58775 62.6185 33.6115 63.52975 33.58025 63.4485 31.1815 64.48475 30.14525"></polygon>
                    <g id="Group-16" transform="translate(0.000000, 34.000000)">
                        <mask id="mask-4" fill="white">
                            <use xlink:href="#path-3"></use>
                        </mask>
                        <g id="Clip-15"></g>
                        <path d="M53.659,14.65375 L51.39025,23.5 C51.34525,23.6725 51.4065,23.85625 51.5465,23.9675 C51.684,24.08 51.87525,24.10125 52.03525,24.02125 L56.80275,21.6375 C56.96275,21.5575 57.0615,21.39125 57.054,21.21375 L56.804,14.47125 L58.7615,14.06125 L60.71275,17.2325 C60.79775,17.37 60.95275,17.4475 61.11025,17.44875 C61.27275,17.445 61.42025,17.35625 61.499,17.21375 L62.82275,14.83125 C62.909,14.67625 62.89775,14.485 62.794,14.34125 L61.7365,12.88125 L63.22275,11.8 L62.6865,11.0625 L60.8315,12.4125 C60.629,12.56 60.584,12.84375 60.7315,13.0475 L61.88525,14.64125 L61.08025,16.09 L59.37025,13.31125 C59.269,13.1475 59.07775,13.065 58.889,13.10375 L56.24025,13.65875 C56.02275,13.70375 55.87025,13.89875 55.87775,14.12125 L56.13275,20.95375 L52.5215,22.75875 L54.6565,14.4325 C54.6865,14.315 54.669,14.18875 54.6065,14.085 C54.54275,13.98 54.4415,13.905 54.32275,13.87625 L51.144,13.1075 C50.95025,13.06 50.749,13.14375 50.6465,13.315 L44.43025,23.675 L40.089,23.4675 L49.47525,12.79125 C49.5615,12.69625 49.6015,12.56875 49.5865,12.44 C49.57275,12.31375 49.5065,12.1975 49.40275,12.1225 L47.259,10.55875 C47.11025,10.45 46.91025,10.44125 46.75275,10.5375 L30.06525,20.72625 L25.47525,19.0575 L45.8115,9.485 C45.92525,9.43125 46.014,9.33 46.0515,9.20875 C46.089,9.085 46.07525,8.9525 46.01025,8.8425 L44.92525,6.98875 C44.82025,6.80875 44.6065,6.7225 44.4065,6.78125 L17.2165,14.6425 L12.75275,11.6675 L44.064,5.5725 C44.304,5.52625 44.46525,5.3 44.42775,5.05875 L44.11275,2.94 C44.07775,2.69875 43.86025,2.5275 43.6165,2.55375 L5.35775,6.4575 L1.69025,3.605 L43.789,1.08625 L43.734,0.17625 L0.429,2.7675 C0.239,2.77875 0.0765,2.90625 0.02025,3.0875 C-0.036,3.26875 0.0265,3.465 0.1765,3.58125 L4.9415,7.28875 C5.03525,7.36125 5.1515,7.395 5.269,7.3825 L43.27525,3.505 L43.46275,4.76125 L11.4915,10.98375 C11.31025,11.01875 11.16775,11.16125 11.1315,11.3425 C11.09525,11.52375 11.17275,11.70875 11.3265,11.81125 L16.8865,15.5175 C16.999,15.5925 17.13775,15.61375 17.2665,15.57625 L44.31775,7.755 L44.9715,8.8725 L24.0965,18.69875 C23.929,18.7775 23.8265,18.94875 23.83525,19.1325 C23.84275,19.31625 23.9615,19.47625 24.134,19.54 L29.96025,21.65875 C30.0915,21.70625 30.23525,21.69125 30.35275,21.61875 L46.96775,11.475 L48.4615,12.565 L38.77775,23.5775 C38.66275,23.70875 38.63275,23.895 38.70025,24.05625 C38.769,24.2175 38.924,24.325 39.099,24.33375 L44.66025,24.59875 C44.66775,24.59875 44.67525,24.59875 44.6815,24.59875 C44.84025,24.59875 44.989,24.515 45.07275,24.3775 L51.25525,14.0725 L53.659,14.65375 Z" id="Fill-14" fill="#FFFFFF" mask="url(#mask-4)"></path>
                    </g>
                </g>
            </g>
        </g>
    </g>
</svg>