<?xml version="1.0" encoding="UTF-8" standalone="no"?>
<!DOCTYPE svg PUBLIC "-//W3C//DTD SVG 1.1//EN" "http://www.w3.org/Graphics/SVG/1.1/DTD/svg11.dtd">
<svg width="100%" height="100%" viewBox="0 0 180 174" version="1.1" xmlns="http://www.w3.org/2000/svg" xmlns:xlink="http://www.w3.org/1999/xlink" xml:space="preserve" xmlns:serif="http://www.serif.com/" style="fill-rule:evenodd;clip-rule:evenodd;stroke-linejoin:round;stroke-miterlimit:2;">
    <g transform="matrix(1,0,0,1,-62.9911,-37.9977)">
        <g transform="matrix(1,0,0,1,-1066,9)">
            <path d="M1175,115C1175,115 1173.4,107.009 1187,107C1200.6,106.991 1195.06,115.503 1193,130C1193,130 1189.84,140.698 1206,140C1222.16,139.302 1220.78,134.772 1221,125C1221.22,115.228 1212.61,102.042 1187,102C1161.39,101.958 1128.37,116.069 1129,154C1129.63,191.931 1156.29,202.352 1183,202C1209.71,201.648 1223.04,186.546 1223,175L1218,175C1218,175 1214.78,195.203 1194,195C1173.22,194.797 1174.4,185.573 1174,181C1173.6,176.427 1174,144 1174,144L1175,115ZM1231,52C1231,52 1231.89,33.794 1207,34C1182.11,34.206 1185.95,52 1186,56C1186.05,60 1196.35,90.128 1166,90C1166,90 1142.66,94.343 1143,70C1143.34,45.657 1171.42,28.772 1207,29C1242.58,29.228 1278.37,41.822 1278,75L1278,185C1278,185 1278.23,195.072 1286,195C1293.77,194.928 1299.4,192.458 1304,186L1308,189C1308,189 1302.19,202.326 1275,202C1247.81,201.674 1232.48,192.095 1232,165C1231.52,137.905 1231,52 1231,52Z"/>
        </g>
    </g>
</svg>
